<svg width="19" height="13" xmlns="http://www.w3.org/2000/svg" xmlns:xlink="http://www.w3.org/1999/xlink"><defs><path d="M1.703 8.307H0L2.274 4.37l2.273 3.937H2.843v5.11c0 .524.426.95.95.95h8.802a.57.57 0 0 1 0 1.14H3.793a2.09 2.09 0 0 1-2.09-2.09v-5.11zM17.297 11H19l-2.274 3.938-2.273-3.938h1.704V5.89a.95.95 0 0 0-.95-.95H6.405a.57.57 0 1 1 0-1.14h8.802a2.09 2.09 0 0 1 2.09 2.09V11z" id="a"/></defs><g transform="translate(-.003 -3)" fill="none" fill-rule="evenodd"><mask id="b" fill="#fff"><use xlink:href="#a"/></mask><use fill="#455065" fill-rule="nonzero" xlink:href="#a"/><g mask="url(#b)" fill="#687089"><path d="M0 0h19v19H0z"/></g></g></svg>